<svg height="32" width="32" xmlns="http://www.w3.org/2000/svg" viewBox="0 0 32 32"><path fill="#95e1d3" fill-rule="evenodd" d="M31.07 25.89l-14.48 5.99c-.18.08-.38.12-.59.12-.21 0-.41-.04-.59-.12L.94 25.89C.39 25.67 0 25.13 0 24.5v-23C0 .67.67 0 1.5 0c.2 0 .4.04.57.11h.01c0 .01 0 .01.01.01L16 5.88 29.91.12c.01 0 .01 0 .01-.01h.01c.17-.07.37-.11.57-.11.83 0 1.5.67 1.5 1.5v23c0 .63-.39 1.17-.93 1.39zM14.5 8.5L3 3.74V23.5l11.5 4.76V8.5zM29 3.74L17.5 8.5v19.76L29 23.5V3.74zm-9.12 6.89l5.5-2.5c.19-.08.4-.13.62-.13a1.498 1.498 0 0 1 .62 2.86l-5.5 2.5c-.19.09-.4.14-.62.14-.83 0-1.5-.67-1.5-1.5 0-.61.36-1.13.88-1.37zm0 5.5l5.5-2.5c.19-.08.4-.13.62-.13a1.498 1.498 0 0 1 .62 2.86l-5.5 2.51v-.01c-.19.09-.4.14-.62.14-.83 0-1.5-.67-1.5-1.5 0-.61.36-1.13.88-1.37zm0 5.5l5.5-2.5c.19-.08.4-.13.62-.13a1.498 1.498 0 0 1 .62 2.86l-5.5 2.5c-.19.09-.4.14-.62.14-.83 0-1.5-.67-1.5-1.5 0-.61.36-1.13.88-1.37zM6 8c.22 0 .43.05.62.13l5.5 2.5c.52.24.88.76.88 1.37 0 .83-.67 1.5-1.5 1.5-.22 0-.43-.05-.62-.14l-5.5-2.5A1.498 1.498 0 0 1 6 8zm0 5.5c.22 0 .43.05.62.13l5.5 2.5c.52.24.88.76.88 1.37 0 .83-.67 1.5-1.5 1.5-.22 0-.43-.05-.62-.14v.01l-5.5-2.51A1.498 1.498 0 0 1 6 13.5zM6 19c.22 0 .43.05.62.13l5.5 2.5c.52.24.88.76.88 1.37 0 .83-.67 1.5-1.5 1.5-.22 0-.43-.05-.62-.14l-5.5-2.5A1.498 1.498 0 0 1 6 19z"/></svg>