<svg height="16" width="16" xmlns="http://www.w3.org/2000/svg" viewBox="0 0 16 16"><path fill="#95e1d3" fill-rule="evenodd" d="M15.84 6.4a7.91 7.91 0 0 0-.47-1.5c-.2-.48-.45-.93-.74-1.36-.28-.42-.61-.82-.97-1.18a8.61 8.61 0 0 0-1.19-.98c-.42-.29-.88-.54-1.36-.74-.48-.2-.98-.36-1.5-.46A7.93 7.93 0 0 0 8 .01c-.54 0-1.08.06-1.61.17-.51.1-1.02.26-1.51.46-.47.2-.93.45-1.35.74-.43.29-.83.62-1.19.98s-.69.76-.97 1.18c-.29.43-.54.88-.74 1.36-.21.48-.36.99-.47 1.5A7.92 7.92 0 0 0 0 8.01c0 .55.05 1.09.16 1.62.11.51.26 1.02.47 1.5a8.158 8.158 0 0 0 1.71 2.54c.36.36.76.69 1.19.98.42.29.88.54 1.35.74.49.2 1 .36 1.51.46.53.11 1.07.17 1.61.17s1.08-.06 1.61-.17c.52-.1 1.02-.26 1.5-.46s.94-.45 1.36-.74c.43-.29.82-.62 1.19-.98a8.158 8.158 0 0 0 1.71-2.54c.21-.48.36-.99.47-1.5.11-.53.16-1.07.16-1.62 0-.54-.05-1.08-.16-1.61zm-1.01 1.55c-.1-.03-2.41-.52-4.76-.23-.05-.11-.09-.23-.15-.35-.14-.33-.29-.67-.45-.99 2.7-1.1 3.79-2.69 3.81-2.71a6.853 6.853 0 0 1 1.55 4.28zm-2.32-5.06c-.01.02-.99 1.51-3.57 2.47a33.86 33.86 0 0 0-2.55-3.98c.52-.13 1.06-.2 1.61-.2 1.73 0 3.31.65 4.51 1.71zM6.36 1.38l-.02.01c.01-.01.02-.01.02-.01zm-1.27.46c.09.12 1.35 1.83 2.53 3.93-3.28.87-6.13.84-6.31.84a6.848 6.848 0 0 1 3.78-4.77zM1.17 8.01V7.8c.12 0 3.5.08 7.02-.97.19.38.38.77.55 1.16-.09.02-.18.05-.27.08-3.68 1.19-5.55 4.51-5.55 4.51a6.798 6.798 0 0 1-1.75-4.57zM8 14.85a6.794 6.794 0 0 1-4.2-1.45s1.31-2.86 5.36-4.27c.02 0 .03-.01.05-.01.96 2.5 1.36 4.59 1.46 5.19-.82.35-1.72.54-2.67.54zm3.82-1.17c-.07-.41-.44-2.42-1.33-4.88 2.2-.35 4.12.25 4.26.3-.31 1.9-1.4 3.55-2.93 4.58z"/></svg>