<svg height="32" width="28" xmlns="http://www.w3.org/2000/svg" viewBox="0 0 28 32"><path fill="#95e1d3" fill-rule="evenodd" d="M26.5 16.5h-3c-.83 0-1.5-.67-1.5-1.5V9c0-.83.67-1.5 1.5-1.5h3c.83 0 1.5.67 1.5 1.5v6c0 .83-.67 1.5-1.5 1.5zm-3-15c0-.83.67-1.5 1.5-1.5s1.5.67 1.5 1.5V6h-3V1.5zm-8 23h-3c-.83 0-1.5-.67-1.5-1.5v-6c0-.83.67-1.5 1.5-1.5h3c.83 0 1.5.67 1.5 1.5v6c0 .83-.67 1.5-1.5 1.5zm-3-23c0-.83.67-1.5 1.5-1.5s1.5.67 1.5 1.5V14h-3V1.5zm-8 19h-3C.67 20.5 0 19.83 0 19v-6c0-.83.67-1.5 1.5-1.5h3c.83 0 1.5.67 1.5 1.5v6c0 .83-.67 1.5-1.5 1.5zm-3-19C1.5.67 2.17 0 3 0s1.5.67 1.5 1.5V10h-3V1.5zm3 29c0 .83-.67 1.5-1.5 1.5s-1.5-.67-1.5-1.5V22h3v8.5zm11 0c0 .83-.67 1.5-1.5 1.5s-1.5-.67-1.5-1.5V26h3v4.5zm11 0c0 .83-.67 1.5-1.5 1.5s-1.5-.67-1.5-1.5V18h3v12.5z"/></svg>