<svg height="14" width="16" xmlns="http://www.w3.org/2000/svg" viewBox="0 0 16 14"><path fill="#95e1d3" fill-rule="evenodd" d="M13.5 3.72v2.44h-1V3.72H10v-1h2.5V.28h1v2.44H16v1h-2.5zM6.59 1.25c.88.49 1.4 1.28 1.4 2.33 0 .87-.54 1.56-1.24 2.1-.68.52-.81.74-.81 1.18 0 .38.73 1.03 1.11 1.29 1.12.78 1.45 1.5 1.45 2.7 0 1.49-1.45 3.17-4.12 3.17C2.04 14.02 0 12.9 0 11.4c0-1.52 1.87-2.99 4.21-2.99.26 0 .49-.01.73-.01-.32-.31-.57-.69-.57-1.15 0-.27.09-.55.21-.78-.13 0-.26-.02-.39-.02C2.26 6.45.98 5.06.98 3.4.98 1.76 2.76.26 4.65.26h4.22l-.95.99H6.59zM4.66 8.8c-1.62-.02-3.07.97-3.07 2.15 0 1.21 1.16 2.1 2.78 2.1 2.28 0 3.08-.82 3.08-2.03 0-.15-.02-.29-.06-.43-.17-.69-.8-1.02-1.68-1.62-.32-.11-.68-.17-1.05-.17zm1.82-5.2c-.19-1.41-1.27-2.53-2.36-2.56C3.03 1 2.3 2.08 2.49 3.48c.19 1.4 1.22 2.57 2.31 2.6C5.89 6.11 6.66 5 6.48 3.6z"/></svg>