<svg height="16" width="16" xmlns="http://www.w3.org/2000/svg" viewBox="0 0 16 16"><path fill="#95e1d3" fill-rule="evenodd" d="M14 16.01H2c-1.11 0-2-.89-2-2v-12a2 2 0 0 1 2-2h12a2 2 0 0 1 2 2v12c0 1.11-.89 2-2 2zM8 4.92c-1.25 0-2.32.73-2.81 1.8-.01.01-.01.02-.02.03-.03.06-.05.13-.08.2-.01.03-.02.06-.03.1a.83.83 0 0 0-.06.21l-.03.1c-.02.07-.03.15-.04.23 0 .03-.01.06-.01.09A3.096 3.096 0 0 0 8 11.11a3.096 3.096 0 0 0 3.08-3.43c0-.03-.01-.06-.01-.09-.01-.08-.03-.16-.04-.23l-.03-.1a.83.83 0 0 0-.06-.21c-.01-.04-.02-.07-.03-.1-.03-.07-.05-.14-.08-.2-.01-.01-.01-.02-.02-.03A3.077 3.077 0 0 0 8 4.92zm6.2-2.31c0-.44-.36-.79-.8-.79h-1.6c-.44 0-.8.35-.8.79v1.61c0 .44.36.79.8.79h1.6c.44 0 .8-.35.8-.79V2.61zm0 4.11h-1.47c.11.41.17.85.17 1.29 0 2.71-2.19 4.91-4.9 4.91-2.71 0-4.9-2.2-4.9-4.91 0-.44.06-.88.17-1.29H1.8v6.7c0 .44.36.8.8.8h10.8c.44 0 .8-.36.8-.8v-6.7z"/></svg>