<svg height="32" width="32" xmlns="http://www.w3.org/2000/svg" viewBox="0 0 32 32"><path fill="#95e1d3" fill-rule="evenodd" d="M30.5 32h-29C.67 32 0 31.33 0 30.5v-29C0 .67.67 0 1.5 0h29c.83 0 1.5.67 1.5 1.5v29c0 .83-.67 1.5-1.5 1.5zM29 3H3v26h26V3zM5.22 16.24l4-2.5c.22-.14.49-.22.78-.22.31 0 .6.09.84.26l.01-.01 6.63 4.42 7.64-5.39c.24-.19.55-.29.88-.29a1.498 1.498 0 0 1 .88 2.71l-8.5 6c-.25.18-.55.29-.88.29-.32 0-.62-.1-.86-.28L9.98 16.8l-3.13 1.96c-.24.16-.54.26-.85.26a1.498 1.498 0 0 1-.78-2.78z"/></svg>