<svg height="30" width="30" xmlns="http://www.w3.org/2000/svg" viewBox="0 0 30 30"><path fill="#fff" fill-rule="evenodd" d="M30 24c0 .65-.42 1.2-1 1.41v1.68c.58.21 1 .76 1 1.41 0 .83-.67 1.5-1.5 1.5-.65 0-1.2-.42-1.41-1h-1.68c-.21.58-.76 1-1.41 1-.65 0-1.2-.42-1.41-1h-1.68c-.21.58-.76 1-1.41 1-.65 0-1.2-.42-1.41-1h-1.68c-.21.58-.76 1-1.41 1-.65 0-1.2-.42-1.41-1h-1.68c-.21.58-.76 1-1.41 1-.65 0-1.2-.42-1.41-1H7.41c-.21.58-.76 1-1.41 1-.65 0-1.2-.42-1.41-1H2.91c-.21.58-.76 1-1.41 1-.83 0-1.5-.67-1.5-1.5 0-.65.42-1.2 1-1.41v-1.68c-.58-.21-1-.76-1-1.41 0-.65.42-1.2 1-1.41v-1.68c-.58-.21-1-.76-1-1.41 0-.65.42-1.2 1-1.41v-1.68c-.58-.21-1-.76-1-1.41 0-.65.42-1.2 1-1.41v-1.68c-.58-.21-1-.76-1-1.41 0-.65.42-1.2 1-1.41V7.41C.42 7.2 0 6.65 0 6c0-.65.42-1.2 1-1.41V2.91C.42 2.7 0 2.15 0 1.5 0 .67.67 0 1.5 0c.65 0 1.2.42 1.41 1h1.68C4.8.42 5.35 0 6 0c.65 0 1.2.42 1.41 1h1.68c.21-.58.76-1 1.41-1 .65 0 1.2.42 1.41 1h1.68c.21-.58.76-1 1.41-1 .65 0 1.2.42 1.41 1h1.68c.21-.58.76-1 1.41-1 .65 0 1.2.42 1.41 1h1.68c.21-.58.76-1 1.41-1 .65 0 1.2.42 1.41 1h1.68c.21-.58.76-1 1.41-1 .83 0 1.5.67 1.5 1.5 0 .65-.42 1.2-1 1.41v1.68c.58.21 1 .76 1 1.41 0 .65-.42 1.2-1 1.41v1.68c.58.21 1 .76 1 1.41 0 .65-.42 1.2-1 1.41v1.68c.58.21 1 .76 1 1.41 0 .65-.42 1.2-1 1.41v1.68c.58.21 1 .76 1 1.41 0 .65-.42 1.2-1 1.41v1.68c.58.21 1 .76 1 1.41zM26 4H4v22h22V4zM13 20l7-8.5 4.5 7v6h-19l6-6L13 20zm-3-7c-1.66 0-3-1.34-3-3s1.34-3 3-3 3 1.34 3 3-1.34 3-3 3z"/></svg>