<svg height="16" width="13" xmlns="http://www.w3.org/2000/svg" viewBox="0 0 13 16"><path fill="#95e1d3" fill-rule="evenodd" d="M5.84 10.42c-.13.52-.26 1.07-.39 1.6-.14.53-.26 1.06-.45 1.55-.33.8-.74 1.57-1.28 2.2-.36.41-.28.25-.39.23-.08-.02-.09-.1-.11-.22-.09-.63-.02-1.37.01-2.09.03-.81.21-1.49.37-2.17.3-1.29.59-2.55.89-3.85.02-.08.08-.23.06-.28-.14-.36-.23-.68-.27-1.06-.04-.43-.01-.84.09-1.21.17-.66.57-1.25 1.18-1.46.39-.14.82-.08 1.08.08.28.16.46.42.55.78.09.38.02.84-.05 1.18-.17.76-.39 1.33-.59 2.07-.1.36-.21.74-.12 1.13.09.36.28.61.53.8.27.19.58.3 1.02.28.77-.03 1.3-.52 1.66-.98.57-.74.91-1.74 1.04-2.93.05-.38.08-.82.05-1.26-.06-.8-.31-1.44-.71-1.95A3.28 3.28 0 0 0 8.44 1.8c-.65-.22-1.54-.29-2.34-.15-1.45.25-2.47 1.07-3.07 2.21-.32.59-.53 1.28-.53 2.13 0 .66.17 1.17.43 1.56.08.13.2.23.29.37.11.21-.02.51-.08.73-.07.27-.08.64-.39.64-.12 0-.29-.09-.39-.15-.82-.45-1.32-1.27-1.52-2.33-.12-.65-.12-1.4 0-2.03.12-.6.34-1.16.59-1.61.51-.94 1.25-1.69 2.16-2.23.7-.41 1.48-.7 2.44-.84.32-.04.65-.06 1-.08 1.05-.05 1.99.19 2.71.5.75.34 1.35.79 1.86 1.34.52.58.9 1.24 1.15 2.07.12.44.25.9.25 1.43 0 .54-.12 1.01-.2 1.48-.29 1.77-1.13 3.22-2.4 4.04-.3.2-.67.38-1.09.51-.42.12-.89.21-1.4.17-.5-.03-.9-.17-1.24-.36-.34-.19-.63-.42-.83-.78z"/></svg>