<svg height="150" width="150" xmlns="http://www.w3.org/2000/svg" viewBox="0 0 150 150"><path stroke-width="3" stroke="#95e1d3" fill="none" d="M0 0h150v150H0V0z"/><path fill="#95e1d3" fill-rule="evenodd" d="M104 81h-2v5c0 .2-.02.41-.06.6-.03.14-.08.27-.12.39-.02.06-.03.12-.06.17-.04.12-.11.23-.17.33-.04.06-.06.13-.1.19-.1.14-.21.27-.34.4-.01.01-.02.03-.03.04-.53.53-1.27.86-2.08.87-.02 0-.03.01-.04.01-.83 0-1.58-.34-2.12-.88L89.76 81H62c-1.66 0-3-1.35-3-3V48c0-1.66 1.34-3 3-3h42c1.66 0 3 1.34 3 3v30c0 1.65-1.34 3-3 3zm-15.49 3l6.33 6.32h.01A6.007 6.007 0 0 0 99 92v2c0 1.65-1.34 3-3 3H64.24l-8.12 8.12c-.54.54-1.29.88-2.12.88-.01 0-.02-.01-.04-.01-.81-.01-1.55-.34-2.08-.87-.01-.01-.02-.03-.03-.04-.13-.13-.24-.26-.34-.4-.04-.06-.06-.13-.1-.19-.06-.11-.13-.21-.17-.32-.03-.06-.04-.12-.06-.17-.04-.13-.09-.26-.12-.4-.04-.19-.06-.4-.06-.6v-6h-4a3.01 3.01 0 0 1-3-3V60c0-1.66 1.34-3 3-3h9v21c0 3.31 2.69 6 6 6h26.51z"/></svg>