<svg height="15" width="18" xmlns="http://www.w3.org/2000/svg" viewBox="0 0 18 15"><path fill="#fff" fill-rule="evenodd" d="M17.73 3.66l-2.48 5.5a.82.82 0 0 1-.69.49l-7.13.47.41 1.18h7.76c.91 0 1.65.74 1.65 1.65 0 .91-.74 1.65-1.65 1.65-.91 0-1.65-.74-1.65-1.65h-7.7c0 .91-.74 1.65-1.65 1.65-.91 0-1.65-.74-1.65-1.65 0-.91.74-1.65 1.65-1.65h1.49L2.91 2.23H1.03C.57 2.23.2 1.85.2 1.4c0-.46.37-.82.83-.82H3.5c.36 0 .66.23.78.55l.48 1.37h12.21a.828.828 0 0 1 .76 1.16zm-12.39.49l1.52 4.36 7.09-.48 1.75-3.88H5.34z"/></svg>