<svg height="15" width="16" xmlns="http://www.w3.org/2000/svg" viewBox="0 0 16 15"><path fill="#95e1d3" fill-rule="evenodd" d="M8.42 12.36c-.58 0-1.14-.17-1.68-.25-2.19 2.78-5.65 2.23-5.65 2.23 2.44-1.16 2.39-3.07 1.96-3.32C1.13 9.89-.02 8.18-.02 6.25-.02 2.86 3.71.12 8.42.12c4.7 0 7.57 2.74 7.57 6.13 0 3.4-2.87 6.11-7.57 6.11zM4.24 4.88c-.83 0-1.5.67-1.5 1.5 0 .82.67 1.5 1.5 1.5s1.5-.68 1.5-1.5c0-.83-.67-1.5-1.5-1.5zm3.75 0c-.83 0-1.5.67-1.5 1.5 0 .82.67 1.5 1.5 1.5s1.5-.68 1.5-1.5c0-.83-.67-1.5-1.5-1.5zm3.75 0c-.83 0-1.5.67-1.5 1.5 0 .82.67 1.5 1.5 1.5s1.5-.68 1.5-1.5c0-.83-.67-1.5-1.5-1.5z"/></svg>