<svg height="14" width="16" xmlns="http://www.w3.org/2000/svg" viewBox="0 0 16 14"><path fill="#95e1d3" fill-rule="evenodd" d="M10.88.52c1.27-.03 1.95.44 2.6 1.03.55-.05 1.26-.36 1.68-.57.14-.08.27-.15.41-.23-.24.65-.57 1.16-1.07 1.55-.11.08-.22.2-.36.25v.01c.71-.01 1.3-.33 1.86-.5v.01c-.29.46-.69.93-1.11 1.27-.17.14-.34.27-.52.41.01.75-.01 1.47-.15 2.11-.82 3.68-2.99 6.18-6.43 7.25-1.23.39-3.23.55-4.64.2-.7-.18-1.34-.38-1.93-.64-.33-.14-.64-.29-.93-.47-.1-.06-.19-.12-.29-.18.32.01.69.1 1.05.04.32-.05.64-.04.94-.1.74-.17 1.4-.38 1.97-.71.27-.17.69-.35.89-.59-.37.01-.71-.08-.98-.17-1.06-.38-1.68-1.07-2.08-2.1.32.03 1.24.12 1.46-.07-.4-.02-.79-.25-1.07-.43C1.32 7.36.63 6.46.63 5.08c.12.06.23.11.34.16.21.09.43.14.69.19.11.03.32.09.45.04h-.02c-.16-.19-.44-.32-.6-.52C.94 4.26.43 3.22.75 1.97c.08-.32.22-.6.36-.86 0 .01.01.01.01.01.07.14.21.23.3.35.28.34.62.66.97.93 1.2.94 2.28 1.51 4.02 1.94.44.11.95.19 1.47.19-.15-.43-.1-1.12.02-1.54.29-1.05.92-1.8 1.85-2.2.23-.1.47-.17.73-.23.14-.01.27-.03.4-.04z"/></svg>