<svg height="23" width="32" xmlns="http://www.w3.org/2000/svg" viewBox="0 0 32 23"><path fill="#fff" fill-rule="evenodd" d="M31.95 21.5v.01a1 1 0 0 1-.99.99h-7.42c.56-.13.97-.62.97-1.21 0 0 0-4.5-3.3-6.14-1.41-.7-1.5-.57-2.2-.73l.02-1.95s-.77-.59-1.01-2.43c-.49.13-.64-.57-.67-1.02-.03-.43-.28-1.78.31-1.66-.12-.9-.21-1.71-.17-2.15.15-1.51 1.61-3.09 3.86-3.2 2.65.11 3.7 1.69 3.85 3.2.04.44-.05 1.25-.17 2.15.59-.12.33 1.23.3 1.66-.03.45-.19 1.15-.67 1.01-.24 1.84-1.01 2.43-1.01 2.43l.02 1.94s.48.28 2.54 1.13c2.06.85 1.42.21 3.09 1.05 2.65 1.31 2.65 4.92 2.65 4.92zm-14.93-6.66c2.26.94 1.56.24 3.4 1.15 2.91 1.44 2.91 5.41 2.91 5.41v.01c0 .6-.49 1.09-1.09 1.09H1.09c-.6 0-1.09-.49-1.09-1.09v-.01s0-3.97 2.91-5.41c1.84-.91 1.13-.17 3.4-1.11 2.26-.93 2.79-1.26 2.79-1.26l.03-2.15s-.85-.65-1.12-2.67c-.52.15-.7-.62-.73-1.11-.03-.48-.31-1.96.34-1.83-.13-.99-.23-1.88-.18-2.36C7.6 1.84 9.21.1 11.68-.03c2.91.13 4.07 1.87 4.23 3.53.05.47-.06 1.37-.19 2.36.65-.13.37 1.35.33 1.82-.03.5-.2 1.27-.73 1.11-.27 2.03-1.11 2.67-1.11 2.67l.02 2.14s.53.31 2.79 1.24z"/></svg>