<svg height="12" width="20" xmlns="http://www.w3.org/2000/svg" viewBox="0 0 20 12"><path fill="#95e1d3" fill-rule="evenodd" d="M19.71 5.78v.05c-.01.01-.01.01-.01.02-.02.16-.09.3-.2.41-.21.25-.43.48-.65.71-1.21 1.23-2.6 2.33-4.12 3.12-.98.51-2.02.92-3.1 1.12-1.18.21-2.37.2-3.54-.05-2.05-.45-3.89-1.55-5.51-2.86-.75-.62-1.49-1.29-2.11-2.04-.27-.33-.27-.72 0-1.04.21-.25.43-.48.66-.71 1.21-1.23 2.6-2.33 4.12-3.12C6.22.88 7.26.47 8.34.27c1.18-.22 2.37-.21 3.55.05 2.04.44 3.88 1.54 5.5 2.86.75.61 1.49 1.28 2.11 2.04.11.11.18.25.2.4v.03c.01 0 .01.01.01.02v.11zM9.99 1.94c-2.01 0-3.64 1.63-3.64 3.65a3.64 3.64 0 0 0 7.28 0c0-2.02-1.63-3.65-3.64-3.65zm0 5.47a1.82 1.82 0 0 1-1.82-1.82c0-1.01.81-1.83 1.82-1.83s1.82.82 1.82 1.83c0 1-.81 1.82-1.82 1.82z"/></svg>